<svg xmlns="http://www.w3.org/2000/svg" xml:space="preserve" viewBox="0 0 498 498"><path d="m433 250 16 82 45 9 4-16-35-7-16-78-25-17c-3-14-13-27-25-34 5-5 9-11 10-18l24-8 9-59 22-30-12-10-26 34-7 53-9 3v-21c0-12-8-25-24-34 0-16-6-32-16-44 2-2 9-10 24-10 30 0 64-11 64-40h-16c0 19-30 24-48 24-20 0-31 9-36 15a72 72 0 0 0-88 0c-5-6-16-15-36-15-18 0-48-5-48-24h-16c0 29 34 40 64 40 15 0 22 8 24 10a72 72 0 0 0-16 44c-9 5-15 11-19 18h-19l-2-19-26-34-12 10 22 30 2 13H0v312h187l4 28-28 21 10 13 36-27-6-35h27c6 7 12 13 19 18h-1c9 27 36 46 64 46s55-19 64-46h-1c25-19 41-48 41-82l1-15 14 10-16 104 36 27 10-13-28-21 16-104-31-23 6-87 9 7zM312 45c28 0 51 20 55 47-14-4-32-7-55-7s-41 3-55 7c4-27 27-47 55-47zm-80 88c0-13 21-32 80-32s80 19 80 32v32c0 9-7 16-16 16H248c-9 0-16-7-16-16v-32zm-16 0v21l-9-3-2-18h11zm-200 0h172l5 30 24 8 3 10H16v-48zm159 220 10 60H16V197h201c-5 4-9 10-11 16H32v96h131l-2 9-35 7 4 16 45-9 4-23h25l2 21-31 23zm16-103 9-7 3 50h-20l8-43zm-14-10-11 53H48v-64h146l-17 11zm24 173-8-53 14-10 1 15c0 17 4 33 12 48h-19zm23-49-8-127c0-22 18-40 40-40v144h16V197h32v255c-45-4-80-41-80-88zm88 113c-13 0-25-6-35-14a103 103 0 0 0 70 0c-10 8-22 14-35 14zm88-112c0 46-35 83-80 87V197h32v144h16V197c22 0 40 18 40 39l-8 129z"/><path d="M256 357h16v16h-16zM352 357h16v16h-16zM32 149h16v16H32zM64 149h16v16H64zM96 149h16v16H96z"/></svg>